<svg width="213" height="82" viewBox="0 0 213 82" fill="none" xmlns="http://www.w3.org/2000/svg">
<path d="M24.6 40.14L17.94 47.25V63H0.3V-4.29153e-06H17.94V26.19L42.33 -4.29153e-06H61.95L36.21 27.9L63.3 63H42.6L24.6 40.14ZM82.5769 20.07C84.3169 17.85 86.5669 16.2 89.3269 15.12C92.1469 13.98 95.3569 13.41 98.9569 13.41V28.8C97.3969 28.62 96.1069 28.53 95.0869 28.53C91.4269 28.53 88.5469 29.52 86.4469 31.5C84.4069 33.48 83.3869 36.51 83.3869 40.59V63H66.2869V14.22H82.5769V20.07ZM126.452 13.41C134.552 13.41 140.732 15.27 144.992 18.99C149.252 22.65 151.382 28.29 151.382 35.91V63H135.452V56.7C132.992 61.44 128.192 63.81 121.052 63.81C117.272 63.81 114.002 63.15 111.242 61.83C108.482 60.51 106.382 58.74 104.942 56.52C103.562 54.24 102.872 51.66 102.872 48.78C102.872 44.16 104.642 40.59 108.182 38.07C111.722 35.49 117.182 34.2 124.562 34.2H134.282C133.982 29.04 130.532 26.46 123.932 26.46C121.592 26.46 119.222 26.85 116.822 27.63C114.422 28.35 112.382 29.37 110.702 30.69L104.942 19.08C107.642 17.28 110.912 15.9 114.752 14.94C118.652 13.92 122.552 13.41 126.452 13.41ZM125.822 53.01C127.802 53.01 129.542 52.53 131.042 51.57C132.542 50.61 133.622 49.2 134.282 47.34V43.11H126.902C121.922 43.11 119.432 44.76 119.432 48.06C119.432 49.56 120.002 50.76 121.142 51.66C122.282 52.56 123.842 53.01 125.822 53.01ZM212.687 14.22L191.627 64.98C189.167 70.98 186.167 75.18 182.627 77.58C179.087 80.04 174.767 81.27 169.667 81.27C167.087 81.27 164.477 80.85 161.837 80.01C159.257 79.23 157.157 78.18 155.537 76.86L161.477 64.89C162.437 65.79 163.577 66.48 164.897 66.96C166.277 67.5 167.657 67.77 169.037 67.77C170.657 67.77 171.977 67.44 172.997 66.78C174.077 66.12 174.977 65.07 175.697 63.63L154.817 14.22H172.367L184.337 44.01L196.397 14.22H212.687Z" fill="#F82E56"/>
</svg>
