<svg width="32" height="32" viewBox="0 0 32 32" fill="none" xmlns="http://www.w3.org/2000/svg">
<path d="M29.8031 2.19676C26.8741 -0.732242 22.1255 -0.732242 19.1965 2.1967L12.9281 8.46507C9.89843 11.4949 10.1789 16.3224 12.9281 19.0717C13.3885 19.5321 13.8979 19.9074 14.4357 20.2158L15.5798 19.0717C16.3302 18.3212 16.0661 17.4439 16.0526 16.8108C15.8879 16.6941 15.7277 16.5679 15.5798 16.42C14.169 15.0093 14.1056 12.5909 15.5798 11.1167C15.7987 10.8978 21.7152 4.98132 21.8481 4.84844C23.3105 3.38601 25.6889 3.38601 27.1514 4.84844C28.6138 6.31088 28.6138 8.68932 27.1514 10.1518L23.0081 14.2951C23.1279 14.958 23.8469 16.5284 23.4771 19.1189C23.4951 19.1011 23.5167 19.0897 23.5347 19.0718L29.8031 12.8034C32.732 9.87438 32.732 5.12576 29.8031 2.19676Z" fill="black"/>
<path d="M19.5573 12.4429C19.097 11.9825 18.5876 11.6071 18.0498 11.2988L16.9058 12.4429C16.1553 13.1933 16.4194 14.0706 16.4329 14.7036C16.5977 14.8204 16.7579 14.9466 16.9058 15.0945C18.3166 16.5053 18.38 18.9235 16.9058 20.3978C16.6863 20.6172 10.2798 27.0237 10.1517 27.1519C8.68922 28.6143 6.31078 28.6143 4.84834 27.1519C3.38591 25.6895 3.38591 23.311 4.84834 21.8486L9.47753 17.2194C9.35772 16.5565 8.63859 14.9861 9.00853 12.3956C8.99047 12.4133 8.96872 12.4249 8.95072 12.4428L2.19666 19.197C-0.732219 22.126 -0.732219 26.8746 2.19666 29.8036C5.12566 32.7325 9.87422 32.7325 12.8032 29.8036L19.5573 23.0495C22.5308 20.076 22.3683 15.2538 19.5573 12.4429Z" fill="black"/>
</svg>
