<svg width="20" height="20" viewBox="0 0 20 20" fill="none" xmlns="http://www.w3.org/2000/svg">
<path d="M9.4551 18.9707C10.7119 20.2275 12.0039 20.2451 13.2959 18.9619L18.8594 13.4072C20.1426 12.124 20.125 10.8232 18.8682 9.5664L10.2725 0.988276C9.6133 0.329096 9.2441 0.285156 8.3125 0.285156H4.97266C4.04102 0.285156 3.75098 0.513666 3.0918 1.17285L1.07031 3.19434C0.402337 3.8623 0.182617 4.15234 0.182617 5.08398V8.42383C0.182617 9.3467 0.217767 9.7246 0.885737 10.3838L9.4551 18.9707ZM6.44922 7.31641C5.76367 7.31641 5.24512 6.78027 5.24512 6.1123C5.24512 5.43555 5.76367 4.9082 6.44922 4.9082C7.13477 4.9082 7.65332 5.43555 7.65332 6.1123C7.65332 6.78027 7.13477 7.31641 6.44922 7.31641Z" fill="#F82E56"/>
</svg>
